<svg id="svg" version="1.1" width="800" height="800" xmlns="http://www.w3.org/2000/svg">
<path opacity="1.000000" stroke="#03c6fc" fill="#e1e2e3"
d="M457.655 10.829 C 456.745 11.835,456.000 13.104,456.000 13.649 C 456.000 14.194,454.372 16.543,452.381 18.868 C 450.391 21.193,449.021 23.355,449.338 23.671 C 450.543 24.876,453.070 22.907,456.565 18.042 C 458.557 15.269,460.505 13.000,460.894 13.000 C 463.023 13.000,463.656 15.391,462.790 20.156 C 462.285 22.933,462.131 25.464,462.446 25.780 C 463.419 26.753,465.934 22.644,465.984 20.000 C 466.022 17.947,466.223 17.768,467.110 19.000 C 467.978 20.207,468.052 20.109,467.490 18.500 C 467.106 17.400,466.397 15.182,465.914 13.570 C 464.483 8.793,460.649 7.520,457.655 10.829 M388.120 21.511 C 385.982 23.442,383.646 26.479,382.928 28.261 C 382.209 30.042,379.907 33.475,377.812 35.890 C 373.518 40.837,371.546 46.639,372.565 51.334 C 373.399 55.182,374.468 55.958,379.000 56.007 C 380.925 56.028,383.625 56.924,385.000 58.000 C 387.758 60.158,389.571 60.503,390.474 59.043 C 390.799 58.516,389.740 57.400,388.120 56.562 C 385.764 55.344,384.956 54.024,384.087 49.970 C 382.087 40.642,382.660 34.572,386.121 28.439 C 387.838 25.398,389.484 23.151,389.779 23.446 C 390.074 23.741,390.861 23.531,391.526 22.978 C 392.461 22.203,392.548 22.945,391.912 26.237 C 390.856 31.696,390.767 41.000,391.771 41.000 C 393.104 41.000,396.747 20.147,395.613 19.013 C 393.889 17.289,392.152 17.868,388.120 21.511 M487.500 18.792 C 485.847 19.151,476.093 24.298,470.000 28.027 C 469.175 28.532,467.030 29.687,465.234 30.594 C 461.286 32.588,460.382 33.826,462.330 34.573 C 463.132 34.881,467.098 33.434,471.144 31.359 C 475.190 29.284,480.209 26.792,482.299 25.820 L 486.098 24.054 484.077 26.777 C 482.966 28.275,481.180 30.611,480.109 31.968 C 477.547 35.216,478.817 37.614,484.336 39.953 C 486.626 40.923,492.775 43.535,498.000 45.757 C 503.225 47.979,508.625 50.124,510.000 50.523 C 511.375 50.922,513.300 52.087,514.278 53.112 C 515.255 54.137,517.280 55.274,518.778 55.638 C 520.275 56.002,523.587 58.033,526.139 60.150 C 528.690 62.268,531.235 64.000,531.795 64.000 C 533.753 64.000,550.212 82.507,554.153 89.140 C 556.340 92.823,558.826 96.103,559.677 96.429 C 560.753 96.842,561.050 96.573,560.655 95.543 C 559.418 92.319,562.330 93.021,565.943 96.819 C 569.883 100.961,575.136 112.880,577.143 122.235 C 578.591 128.982,577.763 139.650,574.717 153.500 C 573.265 160.100,571.622 169.516,571.064 174.426 C 570.483 179.540,569.509 183.685,568.783 184.134 C 567.775 184.757,567.770 185.170,568.758 186.158 C 570.488 187.888,570.344 200.480,568.524 206.609 C 567.665 209.501,565.745 212.819,563.934 214.540 C 562.222 216.168,560.124 218.850,559.272 220.500 C 557.131 224.647,550.410 232.572,546.938 235.044 C 545.351 236.174,538.984 238.223,532.777 239.600 C 526.575 240.977,520.712 242.335,519.750 242.619 C 518.548 242.973,517.980 242.566,517.937 241.317 C 517.880 239.692,517.786 239.711,517.046 241.500 C 515.996 244.039,512.938 246.778,506.000 251.396 C 502.975 253.409,499.712 255.593,498.750 256.249 C 494.645 259.046,498.553 288.108,504.667 300.250 C 506.180 303.256,508.688 304.145,507.489 301.250 C 507.090 300.288,506.613 298.600,506.428 297.500 C 506.243 296.400,505.155 291.779,504.011 287.231 C 502.431 280.952,501.999 276.516,502.215 268.807 L 502.500 258.654 510.560 253.069 C 516.735 248.790,520.358 247.060,526.060 245.669 C 543.897 241.317,547.177 239.922,553.368 234.058 C 556.596 231.001,560.684 226.250,562.453 223.500 C 564.222 220.750,566.448 217.858,567.400 217.073 C 572.168 213.144,574.914 202.193,574.965 186.913 C 575.004 175.080,576.782 161.594,579.925 149.290 C 583.132 136.735,583.508 130.383,581.563 121.639 C 578.192 106.485,573.461 97.467,563.131 86.500 C 535.217 56.867,529.998 53.413,493.000 40.098 C 491.075 39.405,488.038 38.404,486.250 37.872 C 484.462 37.341,483.000 36.280,483.000 35.516 C 483.000 34.751,485.012 31.960,487.472 29.313 C 491.959 24.483,493.080 21.060,490.750 19.301 C 490.063 18.782,488.600 18.553,487.500 18.792 M422.000 26.844 C 415.125 28.357,408.083 30.349,406.350 31.271 C 403.149 32.975,396.000 40.589,396.000 42.295 C 396.000 43.508,400.923 40.378,403.500 37.527 C 406.211 34.527,409.551 32.854,415.500 31.512 C 423.356 29.742,424.948 30.640,419.811 33.944 C 414.819 37.156,412.645 39.462,407.632 46.862 C 400.873 56.840,403.155 56.519,414.115 45.948 C 420.633 39.663,424.551 36.856,431.982 33.149 C 437.217 30.538,442.309 28.573,443.298 28.783 C 445.575 29.267,448.430 27.030,447.158 25.758 C 445.054 23.654,434.408 24.114,422.000 26.844 M443.500 35.195 C 431.418 40.790,430.956 41.103,418.718 51.971 C 408.530 61.019,407.753 61.999,401.344 73.899 C 396.129 83.582,394.538 87.525,394.200 91.606 C 393.817 96.222,394.075 97.166,396.337 99.428 C 398.102 101.193,399.987 102.000,402.348 102.000 C 406.220 102.000,407.030 103.203,406.944 108.832 C 406.882 112.937,403.851 121.216,402.210 121.763 C 401.624 121.959,400.999 120.854,400.822 119.309 C 400.342 115.120,397.568 115.652,397.220 120.000 C 396.983 122.956,397.387 123.751,399.817 125.116 C 402.773 126.776,403.964 130.371,403.989 137.712 C 404.005 142.458,407.834 152.068,411.076 155.500 C 415.025 159.680,420.744 162.656,422.143 161.257 C 422.926 160.474,422.391 159.737,420.234 158.621 C 415.593 156.221,412.000 151.355,412.000 147.470 C 412.000 145.613,411.597 143.060,411.104 141.797 C 409.987 138.934,408.447 132.969,407.207 126.708 C 406.419 122.727,406.575 121.295,408.129 118.247 C 409.158 116.228,410.014 113.885,410.032 113.039 C 410.049 112.192,410.724 110.626,411.532 109.559 C 412.974 107.652,413.000 107.654,413.000 109.698 C 413.000 111.934,416.462 116.864,417.387 115.944 C 418.399 114.937,416.029 108.336,413.994 106.495 C 412.897 105.502,412.000 104.159,412.000 103.510 C 412.000 101.568,405.879 96.722,402.577 96.051 C 397.061 94.930,397.830 91.959,408.707 72.372 C 412.167 66.142,414.146 63.724,417.181 62.018 C 419.359 60.794,421.447 58.968,421.821 57.960 C 422.710 55.561,434.491 45.341,439.109 42.962 C 441.094 41.940,443.648 41.173,444.783 41.259 C 446.530 41.390,446.686 41.729,445.790 43.457 C 445.208 44.581,442.127 48.238,438.943 51.584 C 434.865 55.869,432.947 58.765,432.456 61.380 C 432.073 63.422,432.039 65.372,432.380 65.713 C 432.721 66.054,433.000 65.270,433.000 63.971 C 433.000 62.280,436.277 58.390,444.536 50.275 C 456.378 38.640,458.975 34.880,456.899 32.378 C 455.155 30.277,453.263 30.675,443.500 35.195 M463.750 44.773 C 462.238 44.971,461.000 45.614,461.000 46.202 C 461.000 46.895,462.587 47.054,465.500 46.655 C 470.194 46.012,471.053 46.512,468.477 48.390 C 467.341 49.217,470.458 49.409,480.727 49.144 L 494.500 48.788 488.500 47.049 C 482.548 45.323,469.032 44.081,463.750 44.773 M327.000 56.909 C 328.242 57.787,328.113 57.972,326.250 57.985 C 324.823 57.994,324.000 58.609,324.000 59.667 C 324.000 60.583,324.288 61.046,324.639 60.694 C 324.991 60.343,326.165 61.847,327.248 64.037 C 330.462 70.533,342.246 77.520,350.576 77.870 C 356.124 78.103,361.000 76.711,361.000 74.896 C 361.000 74.069,359.033 73.935,354.062 74.425 C 348.203 75.003,346.352 74.777,342.160 72.974 C 336.194 70.407,332.086 66.565,334.371 65.688 C 335.185 65.376,337.347 65.532,339.175 66.037 C 343.386 67.198,357.194 65.106,365.500 62.049 C 373.115 59.246,373.968 58.398,370.677 56.899 C 368.377 55.851,367.548 56.034,364.025 58.365 C 361.811 59.830,360.000 60.817,360.000 60.559 C 360.000 60.300,358.087 60.793,355.750 61.653 C 349.397 63.992,338.534 63.783,332.734 61.211 C 330.112 60.049,328.087 58.570,328.234 57.924 C 328.380 57.278,327.825 56.547,327.000 56.299 C 325.667 55.898,325.667 55.966,327.000 56.909 M498.249 57.825 C 495.954 59.282,500.423 62.563,513.189 68.793 C 524.353 74.242,526.318 75.626,534.280 83.651 C 539.109 88.518,543.834 93.674,544.780 95.110 C 546.843 98.240,560.560 113.000,561.405 113.000 C 563.025 113.000,561.561 110.305,557.470 105.755 C 554.978 102.984,550.499 97.011,547.517 92.482 C 538.346 78.556,523.518 66.655,506.925 59.902 C 503.002 58.306,499.727 57.007,499.646 57.015 C 499.566 57.024,498.937 57.388,498.249 57.825 M340.000 81.008 C 336.935 82.578,329.385 85.133,315.500 89.300 C 312.290 90.263,311.439 91.024,311.193 93.155 C 310.957 95.193,311.677 96.414,314.287 98.405 C 316.158 99.832,318.407 101.000,319.285 101.000 C 320.163 101.000,321.165 101.457,321.510 102.016 C 321.856 102.575,322.592 102.752,323.147 102.409 C 323.707 102.063,322.563 100.325,320.578 98.508 C 314.387 92.837,314.847 92.443,335.683 85.577 C 342.345 83.382,343.839 82.519,343.721 80.940 C 343.640 79.873,343.558 79.049,343.537 79.108 C 343.517 79.168,341.925 80.023,340.000 81.008 M387.449 105.468 C 386.652 107.375,386.000 109.296,386.000 109.736 C 386.000 110.176,384.825 112.265,383.388 114.379 C 380.569 118.529,376.039 131.872,376.015 136.101 C 375.998 139.081,371.638 147.905,369.288 149.716 C 365.660 152.512,362.233 165.570,362.318 176.276 C 362.369 182.790,360.718 182.702,355.679 175.921 C 353.147 172.514,350.868 169.225,350.614 168.613 C 350.312 167.885,349.785 168.020,349.091 169.000 C 347.801 170.824,347.662 177.236,348.884 178.550 C 349.369 179.073,350.780 182.425,352.018 186.000 C 353.351 189.848,355.760 194.132,357.925 196.500 C 360.706 199.544,362.147 202.532,363.953 209.000 C 366.636 218.613,368.467 222.647,372.915 228.750 C 377.588 235.162,380.987 234.209,377.371 227.500 C 369.456 212.816,367.244 204.589,366.291 186.296 C 365.430 169.762,366.630 165.416,377.857 144.425 C 379.055 142.183,380.865 135.969,381.879 130.616 C 383.436 122.392,384.206 120.383,386.845 117.660 C 389.569 114.850,392.000 107.871,392.000 102.864 C 392.000 100.541,388.724 102.416,387.449 105.468 M313.890 106.633 C 311.474 109.544,299.541 114.407,297.567 113.286 C 296.980 112.952,296.829 113.043,297.232 113.488 C 298.096 114.443,294.099 118.180,292.964 117.478 C 292.536 117.214,292.464 118.010,292.803 119.249 C 293.344 121.226,293.466 121.272,293.806 119.628 C 294.156 117.940,294.307 117.983,295.347 120.065 C 296.012 121.397,297.933 122.745,299.886 123.251 C 304.757 124.512,305.793 122.742,301.528 120.445 C 299.587 119.400,298.000 118.288,298.000 117.973 C 298.000 117.298,304.092 115.000,305.881 115.000 C 307.392 115.000,317.727 107.912,318.340 106.455 C 319.031 104.813,315.275 104.963,313.890 106.633 M357.786 116.844 C 350.508 124.559,347.000 130.892,347.000 136.316 C 347.000 138.456,346.511 140.000,345.833 140.000 C 345.192 140.000,344.902 140.236,345.190 140.524 C 346.190 141.523,349.000 139.777,349.022 138.143 C 349.065 134.959,353.117 127.578,358.394 121.076 C 368.480 108.646,368.088 105.923,357.786 116.844 M388.079 123.199 C 388.036 123.584,387.072 128.759,385.938 134.699 C 384.412 142.698,383.000 146.985,380.497 151.223 C 375.132 160.308,372.863 166.081,372.285 172.113 C 371.506 180.244,373.294 180.029,375.763 171.695 C 376.935 167.738,379.557 161.800,381.589 158.500 C 383.621 155.200,385.922 151.276,386.700 149.780 C 388.781 145.783,390.508 128.960,389.205 125.379 C 388.629 123.795,388.122 122.815,388.079 123.199 M298.186 140.750 C 296.042 142.813,293.998 145.175,293.644 146.000 C 293.179 147.084,292.841 147.163,292.429 146.286 C 291.454 144.215,288.193 146.960,288.721 149.407 C 289.091 151.116,288.977 151.225,288.102 150.000 C 287.153 148.671,287.029 148.675,287.015 150.028 C 286.994 152.154,290.573 155.000,293.268 155.000 C 294.503 155.000,296.898 154.603,298.591 154.117 C 300.428 153.590,302.340 153.611,303.334 154.167 C 304.370 154.747,305.000 154.743,305.000 154.157 C 305.000 152.870,302.471 152.003,298.668 151.986 C 294.511 151.968,291.000 150.994,291.000 149.859 C 291.000 149.359,292.012 148.557,293.250 148.076 C 295.795 147.087,300.180 142.619,301.913 139.250 C 303.541 136.085,302.672 136.435,298.186 140.750 M414.571 145.325 C 414.851 146.054,416.749 147.400,418.790 148.317 C 423.965 150.642,432.448 158.723,434.729 163.500 C 435.780 165.700,437.441 171.019,438.421 175.320 C 439.962 182.079,441.928 185.405,443.472 183.861 C 443.685 183.649,443.219 180.106,442.437 175.988 C 439.148 158.661,427.549 144.000,417.130 144.000 C 414.994 144.000,414.217 144.402,414.571 145.325 M556.030 154.167 C 556.014 155.083,555.443 156.019,554.762 156.246 C 553.351 156.716,553.261 161.704,554.406 176.000 C 555.223 186.208,555.285 185.895,549.030 202.909 C 547.330 207.533,546.091 211.774,546.278 212.333 C 547.335 215.504,555.581 195.987,557.951 184.702 C 558.390 182.613,559.540 180.326,560.507 179.619 C 562.179 178.396,562.174 178.195,560.397 175.483 C 559.008 173.363,558.480 170.510,558.336 164.355 C 558.230 159.803,557.674 155.273,557.102 154.289 C 556.177 152.699,556.057 152.686,556.030 154.167 M300.125 160.664 C 297.589 163.741,297.282 164.662,298.211 166.414 C 298.820 167.561,300.146 169.088,301.159 169.807 C 303.705 171.614,303.547 172.148,299.000 177.123 C 295.469 180.986,293.639 186.000,295.760 186.000 C 296.178 186.000,297.674 187.069,299.083 188.376 C 300.493 189.684,302.738 191.029,304.073 191.367 C 305.408 191.705,305.938 191.723,305.250 191.407 C 304.563 191.092,304.000 190.394,304.000 189.858 C 304.000 189.321,304.563 189.206,305.250 189.601 C 305.976 190.019,306.151 189.939,305.667 189.410 C 305.208 188.910,304.464 188.500,304.013 188.500 C 302.994 188.500,298.000 183.187,298.000 182.103 C 298.000 181.667,298.946 180.454,300.102 179.407 C 301.259 178.361,302.887 176.186,303.720 174.575 C 305.111 171.884,305.087 171.537,303.426 170.322 C 302.432 169.595,302.041 168.986,302.559 168.970 C 303.076 168.953,302.708 168.478,301.740 167.915 C 300.579 167.238,300.131 166.064,300.421 164.461 C 300.974 161.411,301.925 159.835,302.862 160.414 C 303.259 160.660,303.650 159.993,303.730 158.931 C 303.929 156.292,303.598 156.451,300.125 160.664 M394.000 166.131 C 386.837 168.075,384.977 169.317,382.015 174.130 C 380.357 176.825,378.986 179.361,378.969 179.765 C 378.952 180.169,377.831 182.750,376.478 185.500 C 372.080 194.441,373.445 205.008,381.090 221.186 C 385.310 230.119,385.956 232.213,385.026 233.951 C 384.172 235.547,384.214 236.116,385.207 236.403 C 385.918 236.608,389.128 237.727,392.339 238.888 C 395.901 240.176,400.579 241.000,404.336 241.000 C 412.467 241.000,424.474 236.998,429.659 232.559 C 435.559 227.510,443.537 211.000,440.078 211.000 C 439.571 211.000,437.575 214.332,435.642 218.404 C 431.473 227.187,424.299 234.666,419.110 235.639 C 416.635 236.104,415.373 235.863,414.577 234.774 C 413.672 233.536,412.339 233.421,407.139 234.133 C 402.283 234.797,399.542 234.632,395.399 233.428 C 389.762 231.789,388.000 229.922,388.000 225.592 C 388.000 224.195,386.650 219.654,385.000 215.500 C 383.350 211.346,382.000 207.698,382.000 207.392 C 382.000 207.087,383.575 207.810,385.500 209.000 C 389.669 211.576,390.016 210.670,386.334 206.827 C 381.384 201.660,382.064 189.107,387.574 183.931 C 390.750 180.947,393.251 182.186,394.057 187.143 C 394.833 191.905,395.541 192.774,400.579 195.142 C 404.775 197.115,405.000 197.434,405.000 201.419 C 405.000 208.383,403.444 209.546,393.691 209.872 C 391.433 209.948,390.134 210.407,390.500 211.000 C 391.728 212.986,400.602 211.409,404.365 208.535 C 406.671 206.774,407.965 201.220,406.728 198.389 C 406.221 197.228,404.274 195.547,402.403 194.655 C 399.287 193.169,399.000 192.658,399.000 188.593 C 399.000 183.233,395.598 178.570,391.020 177.654 C 389.359 177.322,388.000 176.600,388.000 176.051 C 388.000 174.696,392.720 172.351,398.250 170.959 C 401.827 170.058,402.901 169.297,403.263 167.406 C 403.671 165.268,403.376 165.010,400.611 165.090 C 398.900 165.140,395.925 165.608,394.000 166.131 M335.190 190.625 C 330.718 198.411,330.866 202.486,335.792 207.297 C 337.878 209.334,340.339 211.000,341.261 211.000 C 342.305 211.000,342.730 211.540,342.387 212.433 C 342.085 213.221,342.999 215.848,344.419 218.271 C 347.493 223.516,347.607 224.672,345.132 225.458 C 342.388 226.329,338.081 224.364,337.037 221.765 C 336.513 220.460,336.093 220.136,336.048 221.000 C 335.978 222.333,335.862 222.333,335.000 221.000 C 334.207 219.773,334.028 219.887,334.015 221.628 C 333.995 224.394,335.671 225.704,340.539 226.728 C 349.060 228.520,352.970 225.316,351.035 218.128 C 349.881 213.846,345.615 208.000,343.643 208.000 C 342.995 208.000,340.785 206.859,338.732 205.464 C 334.860 202.833,333.853 199.547,336.200 197.200 C 337.707 195.693,341.246 195.646,342.712 197.113 C 345.356 199.756,345.856 197.272,343.640 192.500 C 339.868 184.377,338.902 184.163,335.190 190.625 M305.953 194.443 C 306.632 195.262,307.374 198.599,307.601 201.859 C 308.373 212.967,312.787 220.000,318.984 220.000 C 322.122 220.000,323.241 220.717,327.182 225.250 C 331.395 230.097,340.655 237.020,337.128 232.686 C 336.373 231.759,336.090 231.000,336.500 231.000 C 336.910 231.000,336.689 230.330,336.009 229.511 C 335.329 228.692,334.369 228.272,333.876 228.577 C 332.923 229.166,328.478 225.022,325.990 221.227 C 325.170 219.977,323.375 218.749,322.000 218.498 C 314.604 217.148,312.617 213.932,308.633 196.860 C 308.294 195.408,307.275 193.936,306.367 193.587 C 305.002 193.063,304.930 193.211,305.953 194.443 M552.520 218.159 C 549.136 222.180,543.108 226.588,535.588 230.539 C 532.266 232.284,529.323 234.599,528.870 235.823 C 527.705 238.971,529.597 238.633,537.389 234.303 C 544.889 230.134,549.888 225.490,553.591 219.250 C 556.584 214.207,556.186 213.801,552.520 218.159 M347.538 245.830 C 347.798 254.726,348.678 256.837,355.817 265.698 C 358.564 269.107,361.368 273.607,362.048 275.698 C 362.729 277.789,364.459 280.898,365.893 282.607 C 370.803 288.460,371.679 289.649,373.227 292.572 C 374.080 294.183,375.669 297.167,376.758 299.204 C 379.163 303.705,383.495 307.450,387.398 308.404 C 390.490 309.160,401.000 305.621,401.000 303.825 C 401.000 303.306,401.403 303.131,401.895 303.435 C 402.388 303.740,403.049 303.315,403.364 302.493 C 403.976 300.899,408.777 298.483,413.154 297.566 C 415.239 297.129,416.151 296.004,417.404 292.327 C 419.184 287.104,419.497 281.425,418.054 280.533 C 417.050 279.913,415.015 286.019,415.006 289.679 C 414.999 292.282,412.522 295.000,410.156 295.000 C 409.221 295.000,406.868 296.309,404.927 297.909 C 393.409 307.403,383.502 308.456,380.557 300.500 C 378.973 296.221,376.107 291.531,371.469 285.629 C 365.928 278.580,364.000 275.386,364.000 273.259 C 364.000 272.262,361.474 268.309,358.386 264.474 C 351.476 255.891,350.000 252.578,350.000 245.655 C 350.000 242.342,349.478 239.812,348.655 239.128 C 347.544 238.207,347.349 239.376,347.538 245.830 M434.335 240.695 C 432.084 241.134,430.580 243.512,431.556 245.090 C 431.865 245.591,433.914 246.000,436.109 246.000 C 440.351 246.000,445.481 248.122,446.334 250.229 C 446.728 251.203,447.090 251.151,447.884 250.006 C 449.234 248.058,447.287 245.020,443.392 243.000 C 441.801 242.175,440.350 241.162,440.167 240.750 C 439.823 239.977,438.099 239.960,434.335 240.695 M385.000 244.709 C 385.000 245.216,386.913 246.686,389.250 247.974 C 391.587 249.262,397.023 252.720,401.330 255.658 C 405.636 258.596,409.507 261.000,409.932 261.000 C 410.356 261.000,412.197 264.262,414.021 268.250 C 417.072 274.918,418.485 276.944,420.113 276.985 C 420.451 276.993,420.621 275.988,420.491 274.750 C 420.361 273.512,420.198 271.476,420.128 270.225 C 420.047 268.787,419.081 267.601,417.500 267.000 C 416.125 266.477,415.000 265.562,415.000 264.966 C 415.000 264.370,414.550 264.160,414.000 264.500 C 413.450 264.840,413.000 264.423,413.000 263.573 C 413.000 262.724,411.196 260.834,408.991 259.375 L 404.982 256.722 407.574 255.377 C 409.000 254.637,411.929 253.558,414.083 252.978 C 416.237 252.398,418.000 251.490,418.000 250.961 C 418.000 249.849,417.794 249.827,408.500 249.936 C 402.050 250.013,396.703 248.681,386.750 244.518 C 385.788 244.115,385.000 244.201,385.000 244.709 M490.000 246.311 C 488.590 247.044,485.604 247.427,483.151 247.190 C 479.873 246.874,478.120 247.274,476.038 248.814 C 473.655 250.576,472.720 250.716,469.245 249.834 C 465.864 248.976,464.456 249.147,460.499 250.897 C 457.905 252.045,455.312 252.693,454.737 252.337 C 454.128 251.961,453.989 252.173,454.405 252.845 C 454.797 253.480,454.641 254.000,454.059 254.000 C 452.410 254.000,452.815 256.992,454.555 257.659 C 456.292 258.326,462.273 255.437,464.718 252.750 C 466.323 250.985,470.592 250.232,469.565 251.895 C 468.136 254.207,477.106 254.782,479.000 252.500 C 479.685 251.675,481.344 251.000,482.687 251.000 C 485.641 251.000,495.000 247.106,495.000 245.877 C 495.000 244.622,492.899 244.805,490.000 246.311 M488.429 270.525 C 487.174 277.217,488.575 293.251,490.868 298.435 C 493.769 304.992,493.625 305.978,489.750 306.116 C 487.595 306.193,487.174 306.400,488.500 306.732 C 489.600 307.007,490.725 307.517,491.000 307.866 C 491.560 308.576,495.024 310.623,499.439 312.852 C 502.066 314.178,502.875 314.159,507.057 312.673 C 510.431 311.475,512.539 311.266,514.618 311.923 C 516.203 312.424,523.896 314.505,531.713 316.548 C 540.312 318.794,546.570 320.973,547.557 322.063 C 548.453 323.053,550.032 327.656,551.065 332.291 C 552.097 336.926,553.409 341.944,553.978 343.443 C 554.548 344.941,555.734 349.334,556.614 353.203 C 557.942 359.039,558.922 360.954,562.357 364.427 C 568.618 370.757,575.304 379.363,574.547 380.119 C 574.337 380.330,574.576 382.703,575.079 385.393 C 576.142 391.081,574.678 402.292,572.422 405.750 C 571.123 407.741,571.129 408.000,572.477 408.000 C 573.315 408.000,574.000 407.410,574.000 406.690 C 574.000 405.969,575.030 402.706,576.289 399.440 C 578.210 394.452,578.454 392.558,577.809 387.625 C 576.682 379.004,577.579 378.173,583.568 382.294 C 588.075 385.395,588.548 386.101,589.061 390.482 C 589.619 395.242,592.459 399.000,595.500 399.000 C 597.372 399.000,596.801 395.750,594.608 393.926 C 593.567 393.060,592.896 391.811,593.117 391.149 C 593.760 389.221,601.985 395.096,602.709 398.000 C 603.464 401.031,604.825 402.180,612.230 406.029 C 619.864 409.998,621.452 412.621,621.693 421.650 C 621.860 427.937,621.673 428.812,620.279 428.277 C 619.210 427.867,618.914 428.052,619.395 428.830 C 620.238 430.193,624.000 430.422,624.000 429.110 C 624.000 428.620,626.138 428.783,628.750 429.472 C 631.362 430.162,635.744 431.264,638.487 431.922 C 641.230 432.581,644.267 433.837,645.237 434.715 C 647.597 436.850,647.502 443.434,644.976 452.932 C 643.889 457.020,643.000 461.318,643.000 462.484 C 643.000 463.649,644.860 467.464,647.133 470.962 C 651.670 477.946,656.434 492.024,659.870 508.608 C 661.013 514.119,662.658 520.332,663.528 522.413 C 664.397 524.494,665.553 530.089,666.095 534.848 C 666.638 539.607,667.462 546.650,667.926 550.500 C 668.390 554.350,669.289 563.350,669.922 570.500 C 670.556 577.650,671.783 586.497,672.650 590.159 C 673.951 595.654,674.133 601.163,673.695 621.659 C 673.403 635.322,672.685 652.800,672.100 660.500 C 670.864 676.776,665.229 710.648,661.121 726.500 C 659.553 732.550,657.282 742.225,656.075 748.000 C 654.868 753.775,653.250 761.425,652.481 765.000 C 651.712 768.575,650.519 774.191,649.830 777.480 C 648.958 781.646,647.615 784.529,645.404 786.980 C 642.541 790.154,639.000 796.868,639.000 799.122 C 639.000 799.605,640.116 800.000,641.481 800.000 C 643.364 800.000,644.118 799.337,644.608 797.250 C 644.963 795.737,646.496 793.150,648.015 791.500 C 652.043 787.124,653.784 783.113,655.016 775.376 C 655.618 771.594,656.720 765.800,657.465 762.500 C 658.209 759.200,659.815 751.775,661.033 746.000 C 662.251 740.225,663.827 733.475,664.534 731.000 C 667.612 720.227,670.735 704.239,674.056 682.250 C 674.575 678.813,675.432 673.188,675.959 669.750 C 678.046 656.160,678.836 598.000,677.057 589.000 C 676.459 585.975,674.861 573.150,673.506 560.500 C 670.307 530.643,669.681 526.725,665.912 513.000 C 657.497 482.352,655.166 475.517,651.048 469.416 C 647.395 464.003,647.191 460.323,650.000 450.500 C 653.109 439.628,652.769 436.422,648.026 431.910 C 644.990 429.022,642.927 427.976,639.276 427.474 C 628.621 426.009,627.135 425.284,626.476 421.222 C 625.264 413.751,622.898 409.051,618.564 405.499 C 616.215 403.574,613.593 402.000,612.736 402.000 C 611.283 402.000,610.341 401.012,604.154 392.993 C 602.864 391.320,600.526 389.289,598.958 388.478 C 597.390 387.668,594.846 385.826,593.304 384.386 C 590.206 381.492,581.944 375.797,575.000 371.768 C 570.451 369.128,569.718 368.415,564.733 361.774 C 562.053 358.205,558.920 348.484,555.135 332.000 C 553.200 323.570,550.662 318.606,547.581 317.223 C 544.848 315.996,533.170 312.524,525.000 310.509 C 521.425 309.627,516.371 308.237,513.768 307.418 C 509.533 306.087,508.786 306.094,506.653 307.492 C 503.739 309.401,499.855 308.242,497.611 304.795 C 495.337 301.303,492.292 288.681,490.965 277.250 C 490.310 271.613,489.621 267.000,489.433 267.000 C 489.245 267.000,488.793 268.586,488.429 270.525 M425.404 286.750 C 425.657 289.363,426.183 297.012,426.573 303.750 C 427.002 311.138,427.698 316.000,428.327 316.000 C 428.901 316.000,434.742 314.152,441.308 311.894 C 455.034 307.173,464.592 305.772,465.576 308.338 C 466.282 310.179,463.324 315.407,459.593 318.912 C 458.201 320.220,457.299 321.675,457.590 322.145 C 459.769 325.671,468.874 317.358,469.717 311.075 C 470.420 305.835,468.806 303.311,464.263 302.548 C 459.672 301.776,448.078 304.105,439.576 307.506 C 436.148 308.878,432.824 310.000,432.191 310.000 C 430.766 310.000,430.281 307.703,429.555 297.500 C 428.915 288.505,427.392 282.000,425.926 282.000 C 425.359 282.000,425.139 284.002,425.404 286.750 M412.156 319.128 C 409.218 321.947,405.287 326.639,403.422 329.554 C 399.672 335.417,399.113 335.691,390.500 335.894 C 387.200 335.972,380.963 336.702,376.640 337.518 C 372.316 338.333,366.981 339.000,364.784 339.000 C 355.869 339.000,341.646 344.436,336.916 349.651 C 335.495 351.218,333.314 354.287,332.069 356.471 C 330.825 358.655,326.915 363.091,323.382 366.329 C 314.641 374.339,309.843 383.202,307.049 396.500 C 306.212 400.484,301.776 413.695,299.998 417.500 C 297.652 422.520,295.000 430.729,294.991 433.000 C 294.986 434.375,294.106 439.826,293.037 445.114 C 291.968 450.402,290.823 457.377,290.493 460.614 C 290.163 463.851,289.470 469.200,288.954 472.500 C 288.437 475.800,288.009 482.550,288.003 487.500 C 287.988 497.553,285.663 525.755,283.963 536.500 C 283.354 540.350,282.536 548.000,282.147 553.500 C 281.684 560.045,280.820 564.654,279.647 566.840 C 278.662 568.677,278.108 570.838,278.416 571.642 C 278.730 572.461,278.542 572.835,277.989 572.493 C 276.919 571.832,276.525 581.121,276.961 596.711 C 277.222 606.042,275.904 614.184,273.301 619.325 C 271.780 622.331,270.264 637.261,271.669 635.400 C 272.126 634.795,273.113 634.103,273.863 633.862 C 274.849 633.546,275.264 631.195,275.363 625.366 C 275.438 620.933,276.019 616.675,276.652 615.903 C 279.642 612.262,280.453 604.839,279.442 590.377 C 278.890 582.482,279.154 579.899,281.402 571.193 C 282.831 565.659,284.000 559.890,284.000 558.372 L 284.000 555.611 286.532 559.043 C 290.079 563.851,292.000 571.113,292.000 579.714 C 292.000 588.430,290.318 593.047,285.250 598.249 C 280.417 603.208,281.718 604.895,288.660 602.668 C 293.585 601.088,299.119 600.526,306.750 600.830 C 311.337 601.013,316.041 604.359,314.241 606.159 C 313.070 607.330,299.005 609.915,293.500 609.971 C 291.300 609.993,287.816 610.479,285.758 611.050 C 280.605 612.481,280.004 615.401,283.570 621.671 C 287.098 627.873,288.561 629.000,293.084 629.000 C 296.280 629.000,298.000 627.791,298.000 625.546 C 298.000 625.386,296.207 624.969,294.016 624.618 C 290.644 624.079,289.719 623.370,288.006 620.012 L 285.981 616.043 288.241 615.577 C 289.483 615.322,293.650 614.902,297.500 614.645 C 301.350 614.387,306.845 613.450,309.710 612.561 C 314.388 611.111,315.027 610.565,315.955 607.223 C 317.533 601.542,317.260 600.321,313.873 597.910 C 311.538 596.247,308.859 595.562,303.289 595.205 C 298.899 594.923,295.646 594.242,295.380 593.549 C 295.132 592.901,295.605 589.773,296.432 586.598 C 297.852 581.148,297.818 580.479,295.820 574.662 C 294.656 571.273,293.362 568.274,292.944 567.998 C 292.526 567.721,291.866 565.804,291.478 563.737 C 291.091 561.669,290.368 559.727,289.872 559.421 C 289.377 559.115,288.083 557.122,286.996 554.993 C 284.973 551.026,284.989 545.636,287.047 538.500 C 287.523 536.850,288.631 523.178,289.510 508.117 C 291.746 469.792,294.080 447.826,297.015 437.500 C 300.277 426.027,303.256 417.402,306.068 411.296 C 307.789 407.558,309.781 401.799,310.494 398.499 C 315.054 377.402,325.559 364.618,343.000 358.941 C 349.801 356.727,352.149 356.500,368.196 356.500 C 381.016 356.500,386.237 356.156,387.146 355.250 C 387.836 354.563,389.412 354.000,390.648 354.000 C 391.885 354.000,396.623 352.823,401.178 351.384 C 407.419 349.412,410.697 348.903,414.480 349.316 C 422.496 350.191,434.689 355.686,442.445 361.919 C 449.876 367.890,461.885 376.000,463.296 376.000 C 463.768 376.000,462.660 374.762,460.835 373.250 C 456.900 369.989,454.404 367.867,446.857 361.363 C 443.753 358.688,438.674 354.925,435.570 353.000 C 432.467 351.075,427.649 348.038,424.863 346.250 C 420.526 343.467,418.898 343.000,413.525 343.000 C 410.075 343.000,405.288 343.693,402.889 344.539 C 389.439 349.285,382.833 350.307,365.000 350.405 C 347.841 350.498,347.405 350.554,342.624 353.250 C 337.016 356.413,337.000 356.417,337.000 354.740 C 337.000 352.562,342.135 347.828,346.676 345.819 C 349.075 344.758,355.192 343.437,360.269 342.885 C 365.346 342.332,373.692 341.232,378.815 340.440 C 383.939 339.648,390.239 338.984,392.815 338.965 C 399.017 338.918,401.590 337.333,405.903 330.904 C 407.881 327.955,410.529 325.033,411.787 324.410 C 413.046 323.788,415.120 322.297,416.396 321.097 C 417.673 319.898,420.387 318.456,422.427 317.893 C 425.490 317.047,425.929 316.619,424.945 315.434 C 422.414 312.384,417.797 313.718,412.156 319.128 M440.000 326.637 C 430.806 329.575,425.774 330.923,422.000 331.459 C 419.525 331.811,416.375 332.735,415.000 333.514 C 412.504 334.927,412.506 334.929,416.286 334.965 C 419.616 334.996,429.628 332.967,441.250 329.907 C 443.420 329.336,445.000 328.305,445.000 327.460 C 445.000 326.026,442.962 325.691,440.000 326.637 M394.333 358.426 C 394.333 359.244,394.946 359.574,395.831 359.235 C 396.910 358.821,397.098 359.057,396.504 360.080 C 396.050 360.861,396.040 361.174,396.481 360.775 C 396.922 360.377,399.357 361.770,401.891 363.871 C 404.426 365.972,407.850 368.525,409.500 369.545 C 411.150 370.564,413.238 372.097,414.140 372.949 C 415.042 373.802,417.517 375.958,419.640 377.740 C 429.996 386.431,443.333 397.987,450.950 404.867 C 455.597 409.065,459.499 412.275,459.619 412.000 C 459.740 411.725,461.113 412.608,462.669 413.962 C 464.226 415.316,459.650 410.664,452.500 403.625 C 440.096 391.413,432.264 384.808,411.000 368.624 C 398.701 359.264,394.333 356.591,394.333 358.426 M556.892 366.750 C 556.598 368.793,556.893 373.282,557.827 381.000 C 558.867 389.583,558.652 410.136,557.504 411.994 C 556.356 413.851,553.078 413.025,547.544 409.485 C 544.521 407.552,538.662 404.666,534.523 403.072 C 520.633 397.723,511.482 389.639,504.091 376.186 C 502.116 372.591,499.938 369.466,499.250 369.241 C 497.357 368.623,497.717 376.785,499.776 381.174 C 502.166 386.268,508.848 393.139,513.559 395.347 C 515.727 396.362,520.425 399.092,524.000 401.412 C 527.575 403.732,532.413 406.457,534.750 407.467 C 541.594 410.425,540.228 411.512,528.699 412.284 C 525.215 412.518,522.272 413.299,521.331 414.241 C 518.773 416.799,520.466 417.910,525.244 416.809 C 530.889 415.508,543.395 416.481,566.526 420.020 C 586.178 423.027,587.207 423.293,602.843 429.425 C 613.026 433.419,615.395 433.162,614.801 428.127 C 614.560 426.087,613.538 425.240,609.646 423.852 C 601.565 420.971,600.810 419.806,601.181 410.780 C 601.356 406.498,601.204 402.996,600.843 402.998 C 600.158 403.000,599.009 412.151,598.997 417.694 C 598.993 419.451,598.533 421.170,597.976 421.515 C 597.418 421.860,594.355 421.240,591.169 420.138 C 586.144 418.398,581.742 417.448,564.163 414.306 C 562.328 413.978,560.609 413.146,560.345 412.456 C 560.080 411.767,561.083 408.797,562.572 405.857 C 565.198 400.677,565.262 400.146,564.682 388.601 C 564.176 378.536,563.678 375.862,561.468 371.345 C 559.135 366.577,557.197 364.631,556.892 366.750 M340.686 368.606 C 336.610 370.815,330.327 381.094,328.944 387.817 C 326.974 397.390,326.006 399.770,321.654 405.742 C 319.346 408.909,315.667 415.066,313.479 419.425 L 309.500 427.350 309.625 441.425 C 309.723 452.555,310.199 457.069,311.898 463.000 C 317.304 481.869,320.015 500.785,320.007 519.559 C 319.997 539.228,319.781 539.406,308.875 528.671 C 300.197 520.129,296.778 517.555,295.631 518.702 C 295.284 519.049,295.000 526.161,295.000 534.507 C 295.000 551.135,296.514 559.481,301.481 570.231 C 305.891 579.776,307.230 578.959,304.385 568.460 C 301.390 557.408,301.173 555.942,299.474 535.250 C 299.005 529.538,299.165 528.000,300.228 528.000 C 300.970 528.000,304.557 530.645,308.199 533.878 C 315.469 540.331,317.947 540.815,321.945 536.559 C 323.893 534.485,324.049 533.187,324.059 518.897 C 324.073 497.582,322.857 487.511,318.336 471.500 C 313.426 454.115,312.597 449.505,312.564 439.387 L 312.530 429.275 317.830 418.561 C 320.745 412.668,324.461 406.453,326.089 404.749 C 327.717 403.046,329.278 400.493,329.559 399.076 C 329.839 397.659,331.282 392.450,332.765 387.500 C 335.126 379.623,336.139 377.783,340.884 372.750 C 346.237 367.072,346.168 365.634,340.686 368.606 M525.000 426.324 C 525.914 427.280,529.680 428.288,534.645 428.905 C 546.247 430.347,561.000 434.319,561.000 436.000 C 561.000 436.432,561.761 437.078,562.691 437.435 C 564.534 438.142,597.224 441.813,608.500 442.578 L 615.500 443.053 610.500 440.939 C 605.909 438.998,600.882 438.200,573.137 435.006 C 567.900 434.403,562.666 433.059,559.137 431.411 C 550.717 427.479,544.580 426.030,533.500 425.360 C 524.434 424.811,523.640 424.901,525.000 426.324 M579.179 506.500 C 578.097 507.875,576.730 509.000,576.141 509.000 C 575.552 509.000,574.592 509.894,574.008 510.986 C 573.188 512.518,573.395 513.854,574.915 516.833 C 577.581 522.059,580.725 523.976,585.600 523.348 C 587.745 523.071,594.000 523.603,599.500 524.528 C 615.751 527.263,618.466 527.391,620.343 525.514 C 622.310 523.547,622.487 522.009,620.750 521.977 C 620.063 521.964,613.650 521.075,606.500 520.000 C 599.350 518.925,590.720 518.036,587.321 518.023 C 580.276 517.997,577.707 516.336,578.196 512.124 C 578.459 509.850,579.033 509.454,582.500 509.155 C 586.297 508.827,597.786 509.841,615.500 512.067 C 619.900 512.620,629.362 513.440,636.526 513.890 C 646.348 514.507,650.746 515.236,654.403 516.854 C 657.071 518.034,659.663 519.000,660.162 519.000 C 661.968 519.000,658.947 515.131,655.457 512.974 C 652.490 511.140,649.665 510.634,638.695 509.971 C 631.438 509.533,621.225 508.483,616.000 507.638 C 602.718 505.490,590.134 504.000,585.271 504.000 C 582.061 504.000,580.709 504.555,579.179 506.500 M466.762 531.750 C 466.631 539.313,466.487 549.100,466.443 553.500 C 466.399 557.900,466.229 564.425,466.066 568.000 C 465.903 571.575,465.835 575.850,465.915 577.500 C 466.048 580.230,466.162 580.325,467.189 578.555 C 468.665 576.012,469.431 518.000,467.990 518.000 C 467.396 518.000,466.905 523.504,466.762 531.750 M629.976 522.646 C 628.850 522.952,628.551 524.094,628.831 527.030 C 629.040 529.213,629.613 531.000,630.105 531.000 C 630.597 531.000,631.000 530.582,631.000 530.072 C 631.000 529.561,633.362 528.622,636.250 527.984 C 642.249 526.660,646.210 527.656,647.962 530.929 C 648.840 532.570,648.640 533.360,646.907 535.093 C 644.697 537.303,644.603 537.305,634.007 535.347 L 630.514 534.702 633.128 538.101 C 635.409 541.067,636.390 541.538,640.823 541.801 C 649.168 542.294,654.000 538.533,654.000 531.542 C 654.000 530.262,654.675 528.955,655.500 528.638 C 656.325 528.322,657.000 527.428,657.000 526.653 C 657.000 523.752,636.886 520.770,629.976 522.646 M383.064 633.423 C 382.267 634.384,382.102 636.778,382.556 640.797 L 383.230 646.747 378.615 651.233 C 374.329 655.398,372.653 659.000,375.000 659.000 C 375.550 659.000,376.000 658.354,376.000 657.565 C 376.000 656.776,377.768 654.863,379.929 653.315 C 383.961 650.426,387.000 645.512,387.000 641.883 C 387.000 640.690,387.523 640.006,388.250 640.245 C 389.406 640.626,390.687 642.220,398.251 652.691 C 399.764 654.786,402.611 658.525,404.578 661.000 C 408.427 665.845,412.758 671.360,414.718 673.913 C 415.388 674.786,415.951 675.107,415.968 674.627 C 415.986 674.147,413.975 670.916,411.500 667.448 C 409.025 663.979,406.998 660.772,406.995 660.321 C 406.993 659.869,405.755 658.129,404.245 656.453 C 402.735 654.777,401.050 652.676,400.500 651.784 C 398.090 647.875,385.630 632.000,384.972 632.000 C 384.572 632.000,383.714 632.640,383.064 633.423 M297.718 635.696 C 296.737 635.950,294.985 638.181,293.824 640.652 C 292.662 643.123,290.202 646.350,288.356 647.822 C 286.336 649.434,285.000 651.396,285.000 652.750 C 285.000 655.133,284.971 655.124,293.500 655.361 C 297.827 655.481,298.542 655.794,298.811 657.683 C 299.073 659.522,297.890 660.454,291.311 663.595 C 277.937 669.979,276.090 672.159,276.035 681.628 C 275.998 688.085,274.601 690.552,271.627 689.410 C 269.947 688.766,269.291 682.561,269.749 671.657 C 270.007 665.514,273.588 658.142,276.692 657.363 C 279.945 656.546,279.559 654.390,275.932 653.126 C 273.861 652.404,272.948 651.479,273.122 650.278 C 273.546 647.349,271.920 637.000,271.035 637.000 C 269.594 637.000,269.284 639.332,269.838 646.000 C 270.295 651.510,270.494 652.043,271.143 649.500 C 271.620 647.633,271.708 648.690,271.376 652.300 C 271.083 655.490,269.681 660.639,268.261 663.742 C 265.718 669.296,265.696 669.541,266.862 679.442 L 268.047 689.500 263.524 693.723 C 260.166 696.857,259.000 698.694,259.000 700.850 C 259.000 704.198,260.039 705.229,265.290 707.088 C 272.003 709.466,272.429 710.543,271.082 721.722 C 270.434 727.100,269.250 735.576,268.452 740.558 C 267.653 745.539,267.000 751.905,267.000 754.704 C 267.000 759.977,264.074 777.236,261.485 787.235 C 259.361 795.438,259.500 800.000,261.873 800.000 C 263.417 800.000,263.762 799.198,263.838 795.441 C 263.888 792.934,264.587 788.322,265.390 785.191 C 269.742 768.240,271.052 761.431,271.966 751.000 C 273.456 734.005,274.941 720.904,275.475 720.040 C 275.734 719.621,276.177 716.954,276.460 714.114 C 277.105 707.636,278.967 703.997,283.585 700.191 C 286.984 697.389,287.079 697.160,285.105 696.533 C 282.900 695.834,279.171 697.935,275.595 701.892 C 273.417 704.302,272.885 704.374,267.750 702.947 C 265.688 702.375,264.000 701.285,264.000 700.526 C 264.000 698.501,268.886 695.000,271.712 695.000 C 273.078 695.000,275.442 693.712,277.077 692.077 C 279.484 689.670,280.000 688.319,280.000 684.421 C 280.000 677.872,283.276 673.722,290.236 671.457 C 295.970 669.590,299.660 667.026,298.047 666.029 C 297.457 665.664,298.101 663.928,299.619 661.795 C 302.823 657.292,302.135 654.372,297.404 652.395 C 293.340 650.697,293.207 649.731,296.500 645.818 C 297.875 644.184,299.000 641.999,299.000 640.962 C 299.000 639.926,299.985 638.160,301.189 637.039 C 303.249 635.119,303.264 635.007,301.439 635.116 C 300.372 635.180,298.698 635.441,297.718 635.696 M349.622 722.135 C 348.691 728.204,346.308 738.631,343.025 751.000 C 339.932 762.655,338.655 769.000,339.404 769.000 C 339.675 769.000,340.668 766.413,341.610 763.250 C 342.552 760.087,344.759 753.000,346.516 747.500 C 350.349 735.494,352.638 721.962,351.253 719.487 C 350.485 718.115,350.158 718.647,349.622 722.135 "
/>
</svg>